PathFileType	4	(X/Y/Z)	pose_F01_0-92.trc
DataRate	CameraRate	NumFrames	NumMarkers	Units	OrigDataRate	OrigDataStartFrame	OrigNumFrames
30	30	7	21	m	30	80	92
Frame#	Time	CHip			RHip			RKnee			RAnkle			RBigToe			RSmallToe			RHeel			LHip			LKnee			LAnkle			LBigToe			LSmallToe			LHeel			Neck			Nose			RShoulder			RElbow			RWrist			LShoulder			LElbow			LWrist			
		X1	Y1	Z1	X2	Y2	Z2	X3	Y3	Z3	X4	Y4	Z4	X5	Y5	Z5	X6	Y6	Z6	X7	Y7	Z7	X8	Y8	Z8	X9	Y9	Z9	X10	Y10	Z10	X11	Y11	Z11	X12	Y12	Z12	X13	Y13	Z13	X14	Y14	Z14	X15	Y15	Z15	X16	Y16	Z16	X17	Y17	Z17	X18	Y18	Z18	X19	Y19	Z19	X20	Y20	Z20	X21	Y21	Z21	
80	2.6666666666666665	-0.14200880470698748	1.82484340892425	-0.6469201297817072	-0.15978487861364468	1.824007885084801	-0.5893436484366759	-0.17107614285649683	1.6945333159740479	-0.5566417869803232	-0.16355823589763552	1.570187204507568	-0.5159229513661744	-0.20564412222151354	1.5383717369521759	-0.5163126094910779	-0.1931229528801397	1.5466080720225017	-0.48720355389350845	-0.15935356313141	1.5618765360128632	-0.5148356239709496	-0.1275523012393756	1.8266944435538446	-0.7119093515997338	-0.121549681919897	1.6984041058176034	-0.6827796277035574	-0.24704535146767698	1.508875454695202	-1.1731266956752373	-0.2776147017710685	1.4817559691153963	-1.1052650555577441	-0.2536517259388065	1.4816152706346644	-1.11732015381338	-0.24070077139498924	1.4949671187921365	-1.186216376550988	-0.13569644717903545	1.985410265931487	-0.6740284790090352	-0.18018482687769036	2.0355000281392903	-0.6828726747915135	-1.7140242697045474	1.8897640023203577	1.1158878267227634	-0.1646812627315182	1.8949909184923792	-0.5544088167066021	-0.1826992162520638	1.8267044032519713	-0.5429341824057325	-0.1118498809804722	1.9870189109380103	-0.7584987066245004	-0.10315946418122575	1.90470891326399	-0.7849735356539259	-0.10613177562152512	1.823153112593782	-0.8063987100316475
81	2.7	-0.14245516346304699	1.8244413156088823	-0.6381000735303033	-0.16223338646754526	1.8238434891926325	-0.5782913464477714	-0.1684314585083433	1.6975527562699742	-0.5514644006872215	-0.16503140080815465	1.5699334298852268	-0.5146304496478861	-0.20724538931071432	1.5386873277089859	-0.5150885230978149	-0.1882559812896075	1.550896289316504	-0.4626170643984492	-0.1593125753111464	1.5614261041999742	-0.5148060472070064	-0.12571110732258992	1.8261581604911794	-0.6935312908462365	-0.12338226644799218	1.698264346847442	-0.6805835704371868	-0.2491401145080961	1.504084236580722	-1.166911223422158	-0.27742085620214896	1.4810056202134612	-1.1043259571735362	-0.25352013616308966	1.4807162751189908	-1.1163357812582486	-0.24051924983707842	1.4933977654186172	-1.1842978854058133	-0.13432166704402457	1.9834813156151239	-0.6677326180563447	-0.18237002576851605	2.039629893245022	-0.6817266714027231	-1.7451758495251342	1.8897747578740978	1.1702242429786613	-0.16835828788384274	1.8945489151714583	-0.5494600887778295	-0.18322829557346068	1.8289380691422135	-0.5463843381028767	-0.11122888271263569	1.9855867111698218	-0.7553253920325824	-0.09778348938759868	1.8996697069808486	-0.774041772020597	-0.10327856130148311	1.8233833240850295	-0.7854721219216135
82	2.7333333333333334	-0.1479098523734848	1.8227853814306831	-0.6275861198887794	-0.16453765488297592	1.822555574892745	-0.5667721446908125	-0.16427805719422836	1.697475100693759	-0.5384915561557153	-0.16498124286565044	1.569575663520345	-0.5144992789970666	-0.20549144104759248	1.5374191500063943	-0.5165790227681906	-0.1833890096990753	1.5551845066105061	-0.4380305749033899	-0.1604961260015095	1.561968026655765	-0.509380306386092	-0.12916158687695564	1.824558908556998	-0.6854398915824396	-0.12679100746917754	1.6993547491245604	-0.6731930781806035	-0.2470039798482323	1.5074250675258372	-1.1721317791302628	-0.27766153060830956	1.4809953609389208	-1.1051626518716515	-0.2536703982162759	1.4813737921652763	-1.117199516725444	-0.24055106193382725	1.493944509019157	-1.1853245843143672	-0.1378450043864244	1.98282737192373	-0.6597751336084635	-0.18202638015764555	2.0406237300985914	-0.6707805846675351	-1.7570823051926534	1.8899568620190235	1.1903945886146436	-0.16921623144637093	1.8930225433994186	-0.5317521613507805	-0.18581216503254247	1.8255732517006638	-0.5262481500985664	-0.11410269351528576	1.9856913172514685	-0.7445104246381313	-0.09780684691157629	1.898920107553524	-0.7621962373986344	-0.10889804815810343	1.820613721687423	-0.7713718286284501
83	2.7666666666666666	-0.1503651710818572	1.8262306180375034	-0.6081681118202029	-0.16475707562380354	1.824202984715531	-0.5494305022563836	-0.1647767179528895	1.695877852673632	-0.5331363379875634	-0.16686527131441278	1.5662349917325484	-0.5119542716216833	-0.20724355563411287	1.5357548775682284	-0.5143465148392035	-0.17852203810854309	1.5594727239045083	-0.41344408540833066	-0.16021964605686265	1.5603383752930378	-0.5095309506217232	-0.13441075493237348	1.8277567773845713	-0.6755921063638267	-0.1306088649857376	1.6977765532671387	-0.6688519869737212	-0.24927778942990422	1.5080139124905936	-1.1688172958081988	-0.27766168374507205	1.4824581905308727	-1.1062627118684822	-0.2536915004663723	1.484089869758645	-1.118141119051047	-0.24143556469129765	1.4968172880284174	-1.1893280049110906	-0.14463166289949314	1.9829918220549692	-0.6441481345542722	-0.18089109137813825	2.041127969338331	-0.6566355887396502	-1.770038156071738	1.8898540116469378	1.2117827177987734	-0.1712888246998522	1.8939734246210567	-0.5207086902721588	-0.19101020427550372	1.8246725318467232	-0.5158772753653481	-0.11697237434603376	1.985643150542565	-0.7217867502981392	-0.10615762760557589	1.8980961893236645	-0.7493765000734935	-0.11853365302819091	1.8211123199778922	-0.7532256830388335
84	2.8	-0.15322132550194825	1.82569663300869	-0.5967356337070335	-0.17225319610493675	1.8250562206585734	-0.5368293691705311	-0.1660808048225902	1.696108965895886	-0.527338450640403	-0.1670328960653231	1.5694757596374627	-0.5121210184809992	-0.20746598865682658	1.5367556017004416	-0.5143739651374315	-0.17365506651801088	1.5637609411985105	-0.3888575959132714	-0.1605438476109976	1.5619567922847	-0.5092491558665235	-0.13580711256936084	1.82626616792686	-0.6576075071801771	-0.13742289533059165	1.7014930232798313	-0.661968421976168	-0.2512787478151748	1.507565644753863	-1.176058970050017	-0.28190258437445403	1.4829859309507574	-1.1097936364562697	-0.26021590991897164	1.4851910949142813	-1.1182642422450682	-0.24247948941283626	1.4941131913529306	-1.1929444551755692	-0.14354778635306611	1.9821742310615695	-0.6289620494376227	-0.18215154137841683	2.041730445568582	-0.6510067898239097	-0.16686603867720354	1.9802188253818083	-0.5447522706586101	-0.17753276448146546	1.8954187622233059	-0.5053102217902928	-0.1955557469707038	1.8336625340821882	-0.5037869707948102	-0.12074391012877002	1.9832273939909817	-0.7138447251381516	-0.11000642484345942	1.8966753612194196	-0.7294503082354505	-0.12000797328006091	1.8234757072294083	-0.736087403058601
85	2.8333333333333335	-0.1584515735484956	1.82529046852287	-0.5866084837354069	-0.17349366695734014	1.8254851158368846	-0.5311256121296887	-0.16939895083926204	1.6965163524475313	-0.5195476224903812	-0.1674853683784808	1.5691759786367916	-0.5114270663388287	-0.20865392774242805	1.5377680004937793	-0.5084685544525961	-0.16878809492747868	1.5680491584925127	-0.36427110641821214	-0.15971569600250646	1.5625596334274165	-0.5058936150639965	-0.14134450539326682	1.827058087574675	-0.6474223845891653	-0.14535477086084703	1.6996788452298464	-0.6493435463139093	-0.11757927880149104	1.5739739721420345	-0.6363734677185693	-0.16050119669380797	1.5415075293286336	-0.6513676383635831	-0.26798454952717654	1.4870858460577427	-1.1345044640549946	-0.25259052898080797	1.5015456839151826	-1.2076149370686584	-0.14693382384223094	1.981941509472445	-0.621257940251859	-0.18418571057365976	2.0421421917759255	-0.64853900054451	-0.16722453616511437	1.981038699933935	-0.5363318605570971	-0.1796219928098416	1.896899213995812	-0.4941218486496135	-0.20325597029332618	1.8286633888881212	-0.4939780157574018	-0.12511416843496553	1.9835907786509608	-0.7090537225268386	-0.11032258682347032	1.9001548731001083	-0.7210957307293405	-0.12995189098779464	1.8266488310176736	-0.7216917684280165
86	2.8666666666666667	-0.1606395765467007	1.8253244897197212	-0.5841302127806799	-0.174547027760562	1.8243184596667719	-0.5254335303772355	-0.17132530548076338	1.698317895094645	-0.5176765537869472	-0.16721609619450847	1.5704542468441858	-0.5120660700719811	-0.21159521249710384	1.5368698186128915	-0.5096143395243252	-0.16392112333694647	1.572337375786515	-0.3396846169231529	-0.15967191383958929	1.5649866001408568	-0.5065450359569927	-0.14563715351676784	1.8268290107797212	-0.6426970160646903	-0.15305177585392182	1.703472497211556	-0.6207271674627164	-0.12346694597875231	1.5737109143763304	-0.6269011095222456	-0.16420038085644006	1.5449300676881665	-0.6319494314255104	-0.15089088436243853	1.550317478926275	-0.6496723765001983	-0.1086908828409985	1.5630737757946749	-0.6191178960013397	-0.14908813541236343	1.980471075918952	-0.6187825049785557	-0.1852786021060549	2.0449484793551966	-0.6435868671785078	-0.17037931302534	1.9802070798359501	-0.52862227636064	-0.18052501721238332	1.8969293689189874	-0.48830434276611295	-0.20768181690918439	1.8308336283622655	-0.49326547186802144	-0.1222229320163786	1.9837230015053255	-0.7081572823653113	-0.11053053483890152	1.898970603074369	-0.7206819257231664	-0.13448355838076412	1.8292599175971866	-0.7170937587456884
